# xmcd
#
# Track frame offsets:
#	150
#	15844
#	33468
#	44358
#	62454
#	82348
#	102671
#	122569
#	141184
#	157667
#	177030
#	197849
#	217818
#	235148
#
# Disc length: 3455 seconds
#
# Revision: 0
# Processed by: cddbd v1.5.1PL2 Copyright (c) Steve Scherf et al.
# Submitted via: EasyCDDAExtractor 4.6.9.1
#
DISCID=b10d7d0e
DTITLE=Faith Hill - Fireflies
DYEAR=2005
DGENRE=Country
TTITLE0=Sunshine And Summertime
TTITLE1=Mississippi Girl
TTITLE2=Dearly Beloved
TTITLE3=I Ain't Gonna Take It Anymore
TTITLE4=Stealing Kisses
TTITLE5=Fireflies
TTITLE6=Like We Never Loved At All (Feat. Tim McGraw)
TTITLE7=I Want You
TTITLE8=The Lucky One
TTITLE9=If You Ask
TTITLE10=We've Got Nothing But Love To Prove
TTITLE11=You Stay With Me
TTITLE12=Wish For You
TTITLE13=Paris (Bonus Track)
EXTD=YEAR: 2005\n
EXTT0=
EXTT1=
EXTT2=
EXTT3=
EXTT4=
EXTT5=
EXTT6=
EXTT7=
EXTT8=
EXTT9=
EXTT10=
EXTT11=
EXTT12=
EXTT13=
PLAYORDER=
